<svg width="100" height="100" viewBox="0 0 100 100" fill="none" xmlns="http://www.w3.org/2000/svg">
<g id="Vector" filter="url(#filter0_i_306_24)">
<path fill-rule="evenodd" clip-rule="evenodd" d="M50 100C77.6142 100 100 77.6142 100 50C100 22.3858 77.6142 0 50 0C22.3858 0 0 22.3858 0 50C0 77.6142 22.3858 100 50 100ZM27.1967 32.1967C28.6032 30.7902 30.5109 30 32.5 30H67.5C69.4891 30 71.3968 30.7902 72.8033 32.1967C74.2098 33.6032 75 35.5109 75 37.5V62.5C75 64.4891 74.2098 66.3968 72.8033 67.8033C71.3968 69.2098 69.4891 70 67.5 70H32.5C30.5109 70 28.6032 69.2098 27.1967 67.8033C25.7902 66.3968 25 64.4891 25 62.5V37.5C25 35.5109 25.7902 33.6032 27.1967 32.1967ZM51.775 49.7L66.475 35H33.525L48.225 49.7C48.4574 49.9343 48.7339 50.1203 49.0386 50.2472C49.3432 50.3741 49.67 50.4395 50 50.4395C50.33 50.4395 50.6568 50.3741 50.9614 50.2472C51.2661 50.1203 51.5426 49.9343 51.775 49.7ZM69.2678 64.2678C69.7366 63.7989 70 63.163 70 62.5V38.525L55.3 53.225C53.8937 54.6295 51.9875 55.4184 50 55.4184C48.0125 55.4184 46.1063 54.6295 44.7 53.225L30 38.525V62.5C30 63.163 30.2634 63.7989 30.7322 64.2678C31.2011 64.7366 31.837 65 32.5 65H67.5C68.163 65 68.7989 64.7366 69.2678 64.2678Z" fill="#476FD6"/>
</g>
<defs>
<filter id="filter0_i_306_24" x="0" y="0" width="105" height="105" filterUnits="userSpaceOnUse" color-interpolation-filters="sRGB">
<feFlood flood-opacity="0" result="BackgroundImageFix"/>
<feBlend mode="normal" in="SourceGraphic" in2="BackgroundImageFix" result="shape"/>
<feColorMatrix in="SourceAlpha" type="matrix" values="0 0 0 0 0 0 0 0 0 0 0 0 0 0 0 0 0 0 127 0" result="hardAlpha"/>
<feOffset dx="5" dy="5"/>
<feGaussianBlur stdDeviation="2.5"/>
<feComposite in2="hardAlpha" operator="arithmetic" k2="-1" k3="1"/>
<feColorMatrix type="matrix" values="0 0 0 0 0 0 0 0 0 0 0 0 0 0 0 0 0 0 0.25 0"/>
<feBlend mode="normal" in2="shape" result="effect1_innerShadow_306_24"/>
</filter>
</defs>
</svg>
